<svg xmlns="http://www.w3.org/2000/svg" width="3421.31" height="1673.071" viewBox="0 0 3421.31 1673.071">
  <g id="Group_11579" data-name="Group 11579" transform="translate(707.311 356.536)">
    <path id="Path_15548" data-name="Path 15548" d="M-12067.385,1018.193s777.424,210.569,1563.279,0,1408.551,0,1408.551,0V265.9s-570.167-224.644-1408.551,0-1563.279,0-1563.279,0Z" transform="translate(11493.074 -522.592)" fill="#bbf4e7"/>
    <path id="Path_15546" data-name="Path 15546" d="M-12067.384,262.566s801.712-217.148,1612.12,0,1452.558,0,1452.558,0v775.8s-587.981,231.663-1452.558,0-1612.12,0-1612.12,0Z" transform="translate(11716.705 10.519)" fill="#a0eee0"/>
    <path id="Path_15547" data-name="Path 15547" d="M-12067.385,259.643s777.424-210.569,1563.279,0,1408.552,0,1408.552,0v752.3s-570.168,224.644-1408.552,0-1563.279,0-1563.279,0Z" transform="translate(11360.074 204.756)" fill="#bbf4e7"/>
  </g>
</svg>
