<svg xmlns="http://www.w3.org/2000/svg" width="712.089" height="372.119" viewBox="0 0 712.089 372.119">
  <g id="Group_611" data-name="Group 611" transform="translate(-199.239 -148.204)">
    <g id="Group_600" data-name="Group 600" transform="translate(565.486 148.204)">
      <g id="Group_587" data-name="Group 587" transform="translate(60.065 9.329)">
        <path id="Path_1079" data-name="Path 1079" d="M564.078,189.46H518.883L492.71,284.593H537.9Z" transform="translate(-483.491 -140.487)" fill="#677f91"/>
        <g id="Group_586" data-name="Group 586">
          <path id="Rectangle_113" data-name="Rectangle 113" d="M4.767,0H138.121a4.767,4.767,0,0,1,4.767,4.767v92a4.768,4.768,0,0,1-4.768,4.768H4.768A4.768,4.768,0,0,1,0,96.769v-92A4.767,4.767,0,0,1,4.767,0Z" fill="#677f91"/>
          <path id="Rectangle_114" data-name="Rectangle 114" d="M4.767,0H138.121a4.768,4.768,0,0,1,4.768,4.768v92a4.767,4.767,0,0,1-4.767,4.767H4.767A4.767,4.767,0,0,1,0,96.769v-92A4.767,4.767,0,0,1,4.767,0Z" transform="translate(5.482)" fill="#c2d8de"/>
          <rect id="Rectangle_115" data-name="Rectangle 115" width="131.617" height="80.815" transform="translate(12.305 5.18)" fill="#40336f"/>
          <rect id="Rectangle_116" data-name="Rectangle 116" width="117.452" height="63.739" transform="translate(19.114 16.5)" fill="#fefefe"/>
          <g id="Group_585" data-name="Group 585" transform="translate(27.174 13.794)">
            <circle id="Ellipse_32" data-name="Ellipse 32" cx="23.842" cy="23.842" r="23.842" transform="translate(0 33.9) rotate(-45)" fill="#fdbd52"/>
            <circle id="Ellipse_33" data-name="Ellipse 33" cx="23.842" cy="23.842" r="23.842" transform="translate(33.265 41.427) rotate(-60.317)" fill="#ef4c44"/>
          </g>
          <rect id="Rectangle_117" data-name="Rectangle 117" width="117.452" height="5.424" transform="translate(19.114 11.075)" fill="#fdbd52"/>
        </g>
        <rect id="Rectangle_118" data-name="Rectangle 118" width="80.135" height="6.907" transform="translate(9.22 144.106)" fill="#c2d8de"/>
        <path id="Path_1082" data-name="Path 1082" d="M501.671,226.655h45.195l-2.3,8.373H499.368Z" transform="translate(-480.74 -125.118)" fill="#677f91" style="mix-blend-mode: multiply;isolation: isolate"/>
      </g>
      <g id="Group_590" data-name="Group 590" transform="translate(282.204 33.182)">
        <path id="Path_1083" data-name="Path 1083" d="M668.311,260.159s-9.05-11.151-3.035-28.6,33.532-31.994,33.532-31.994S700.338,254.584,668.311,260.159Z" transform="translate(-635.182 -160.165)" fill="#415369"/>
        <g id="Group_588" data-name="Group 588" transform="translate(9.231)">
          <path id="Path_1084" data-name="Path 1084" d="M671.11,267.1s-18.2-8.777-20.993-34.6,23.529-60.821,23.529-60.821S708.55,240.821,671.11,267.1Z" transform="translate(-649.909 -171.684)" fill="#276da3"/>
          <line id="Line_4" data-name="Line 4" y1="71.22" x2="0.968" transform="translate(20.146 21.067)" fill="none" stroke="#7fd2f7" stroke-miterlimit="10" stroke-width="0.691"/>
          <line id="Line_5" data-name="Line 5" y1="12.026" x2="16.067" transform="translate(20.536 57.577)" fill="none" stroke="#7fd2f7" stroke-miterlimit="10" stroke-width="0.691"/>
          <line id="Line_6" data-name="Line 6" x1="9.918" y1="11.77" transform="translate(10.869 33.408)" fill="none" stroke="#7fd2f7" stroke-miterlimit="10" stroke-width="0.691"/>
        </g>
        <path id="Path_1085" data-name="Path 1085" d="M672.555,257.174s-13.342.529-22.983-13.665-5.149-42.778-5.149-42.778S686.237,230.225,672.555,257.174Z" transform="translate(-643.377 -159.683)" fill="#415369"/>
        <g id="Group_589" data-name="Group 589" transform="translate(10.827 92.247)">
          <path id="Path_1086" data-name="Path 1086" d="M672.543,236.96h-21.5c-.316,23.178,9.844,37.322,9.844,37.322h23.3s10.162-14.145,9.846-37.322Z" transform="translate(-651.039 -236.96)" fill="#fdbd52"/>
          <path id="Path_1087" data-name="Path 1087" d="M651.046,236.96c-.316,23.178,9.844,37.322,9.844,37.322h13.461s-10.161-14.145-9.846-37.322Z" transform="translate(-651.039 -236.96)" fill="#bd65b4" opacity="0.31" style="mix-blend-mode: multiply;isolation: isolate"/>
          <path id="Path_1088" data-name="Path 1088" d="M651.046,236.96a75.916,75.916,0,0,0,.4,8.92h42.188a76.223,76.223,0,0,0,.4-8.92H651.046Z" transform="translate(-651.039 -236.96)" fill="#fefefe" opacity="0.32"/>
        </g>
        <line id="Line_7" data-name="Line 7" x1="13.467" y1="25.946" transform="translate(10.827 66.3)" fill="none" stroke="#7fd2f7" stroke-miterlimit="10" stroke-width="0.691"/>
        <line id="Line_8" data-name="Line 8" x2="42.187" transform="translate(11.238 101.167)" fill="none" stroke="#b5843c" stroke-miterlimit="10" stroke-width="0.691"/>
      </g>
      <g id="Group_594" data-name="Group 594" transform="translate(0 160.342)">
        <g id="Group_591" data-name="Group 591" transform="translate(248.456 23.773)">
          <rect id="Rectangle_119" data-name="Rectangle 119" width="9.685" height="139.596" transform="translate(8.703)" fill="#c2d8de"/>
          <rect id="Rectangle_120" data-name="Rectangle 120" width="8.703" height="139.596" fill="#415369"/>
          <rect id="Rectangle_121" data-name="Rectangle 121" width="18.389" height="14.136" fill="#677f91" style="mix-blend-mode: multiply;isolation: isolate"/>
        </g>
        <rect id="Rectangle_122" data-name="Rectangle 122" width="311.503" height="13.251" transform="translate(16.162 10.522)" fill="#c2d8de"/>
        <rect id="Rectangle_123" data-name="Rectangle 123" width="340.272" height="10.522" fill="#1b2a3c"/>
        <line id="Line_9" data-name="Line 9" x2="311.503" transform="translate(16.162 10.522)" fill="none" stroke="#415369" stroke-miterlimit="10" stroke-width="1.17"/>
        <rect id="Rectangle_124" data-name="Rectangle 124" width="9.685" height="139.596" transform="translate(304.359 23.773)" fill="#415369"/>
        <rect id="Rectangle_125" data-name="Rectangle 125" width="8.703" height="139.596" transform="translate(295.656 23.773)" fill="#c2d8de"/>
        <g id="Group_592" data-name="Group 592" transform="translate(60.09 23.773)">
          <rect id="Rectangle_126" data-name="Rectangle 126" width="9.685" height="139.596" transform="translate(8.703)" fill="#415369"/>
          <rect id="Rectangle_127" data-name="Rectangle 127" width="8.703" height="139.596" fill="#c2d8de"/>
        </g>
        <g id="Group_593" data-name="Group 593" transform="translate(28.977 23.773)">
          <rect id="Rectangle_129" data-name="Rectangle 129" width="9.685" height="139.596" transform="translate(8.703)" fill="#c2d8de"/>
          <rect id="Rectangle_130" data-name="Rectangle 130" width="8.703" height="139.596" fill="#415369"/>
        </g>
        <rect id="Rectangle_132" data-name="Rectangle 132" width="18.389" height="14.136" transform="translate(295.656 23.773)" fill="#677f91" style="mix-blend-mode: multiply;isolation: isolate"/>
      </g>
      <g id="Group_597" data-name="Group 597" transform="translate(81.841)">
        <g id="Group_595" data-name="Group 595" transform="translate(76.798 209.808)">
          <path id="Path_1089" data-name="Path 1089" d="M615.832,366.751v14.865H555.977s-1.46-11.589,14.012-14.865Z" transform="translate(-555.94 -267.712)" fill="#211b3a"/>
          <path id="Path_1090" data-name="Path 1090" d="M565.241,296.669a32.751,32.751,0,0,0-2.173,13.338l3.991,85.7H612.9v-76.44h8.462Z" transform="translate(-553.01 -296.669)" fill="#211b3a"/>
        </g>
        <path id="Path_1091" data-name="Path 1091" d="M589.067,279.541l-49.59,3.182a32.9,32.9,0,0,0-30.754,34.36l3.991,85.7h45.844v-76.44h67.1a36.182,36.182,0,0,0,36.127-34.161l.708-12.642Z" transform="translate(-498.666 -93.938)" fill="#40336f"/>
        <path id="Path_1092" data-name="Path 1092" d="M575.517,168.761a53.263,53.263,0,0,0-1.83,7.955c2.586.82,2.729.492,2.729.492Z" transform="translate(-471.809 -139.71)" fill="#ce7d6f"/>
        <path id="Path_1093" data-name="Path 1093" d="M600.216,184.927l1.135,13.058-18.508,2.5,1.965-11.014-9.646-.8,15.4-12.254,6.472-5.9Z" transform="translate(-471.2 -138.989)" fill="#f59883"/>
        <path id="Path_1094" data-name="Path 1094" d="M592.307,176.828c-3.266.9-6.145,1.733-8.688,2.5l-8.456,6.727,9.646.8S591.613,181.761,592.307,176.828Z" transform="translate(-471.2 -136.377)" fill="#561b1b"/>
        <path id="Path_1095" data-name="Path 1095" d="M618.626,326.344a36.182,36.182,0,0,0,36.127-34.161l.708-12.642h-54.5c-2.07,7.446-9.451,22.756-35.259,24.2-34.226,1.921-41.808,4.94-39.647,32.156s25.47,42.292,25.47,42.292v-51.85Z" transform="translate(-491.631 -93.938)" fill="#211b3a"/>
        <path id="Path_1096" data-name="Path 1096" d="M577.037,159.045s-4.018,20.36-1.721,34.356c10.62-2.545,12.915-4.135,17.221-9.225,2.009-9.861,0-20.678,0-20.678Z" transform="translate(-471.429 -143.725)" fill="#f59883"/>
        <path id="Path_1097" data-name="Path 1097" d="M576.991,159.236c-.441,2.326-3.827,21.007-1.676,34.113,2.243-.537,4.1-1.032,5.694-1.526.268-3,1.154-9.774,3.9-14.012,3.6-5.569,3.581-12.965,3.581-12.965l-2.843-3.38-7.982-2.294Z" transform="translate(-471.429 -143.672)" fill="#fff" opacity="0.42" style="mix-blend-mode: overlay;isolation: isolate"/>
        <path id="Path_1098" data-name="Path 1098" d="M576.98,165.978s-3.293-6.241-3.293-10.555,2.612-10.106,7.665-5.564,13,7.835,18.337,9.2,12.151,12.945,10.9,20.666-7.722,12.717-9.765,14.42c-2.611-7.494-4.429-10.463-4.429-10.463l-3.52-13.155Z" transform="translate(-471.809 -148.204)" fill="#40336f"/>
        <path id="Path_1099" data-name="Path 1099" d="M576.017,165.807s4.2-1.59,7.268,1.475" transform="translate(-470.847 -141.101)" fill="none" stroke="#40336f" stroke-linecap="round" stroke-miterlimit="10" stroke-width="1.246"/>
        <path id="Path_1100" data-name="Path 1100" d="M577.242,195.748l5.687-7.391s13.346-2.987,26.343,0l3.752,6.07S586.805,193.986,577.242,195.748Z" transform="translate(-470.34 -132.162)" fill="#fdbd52"/>
        <path id="Path_1101" data-name="Path 1101" d="M621.355,192.725s34.339,7.043,35.219,15.849S646.281,320.3,646.281,320.3s-45.813,4.132-77.208-4.232c-8.031-88.558-11.994-111.892-11.994-111.892s17.029-10.029,33.235-12.217A105.9,105.9,0,0,1,621.355,192.725Z" transform="translate(-478.671 -130.46)" fill="#fdbd52"/>
        <g id="Group_596" data-name="Group 596" transform="translate(14.113 73.712)">
          <path id="Path_1102" data-name="Path 1102" d="M534.935,243.145s-16.29-2.055-20.251,3.816c-2.165,3.205-2.884,8.993-3.092,13.588a9,9,0,0,0,6.1,8.893l10.64,3.64Z" transform="translate(-511.583 -182.832)" fill="#f59883"/>
          <path id="Path_1103" data-name="Path 1103" d="M571.985,200.364s-10.566,8.8-19.37,32.578-11.006,27.735-11.006,27.735H531.043s-17.17,12.767-6.6,29.937c7.751,2.279,18.219,4.559,26.51,6.228a16.617,16.617,0,0,0,18.677-10.048l14.058-34.629S593.558,206.527,571.985,200.364Z" transform="translate(-507.691 -200.364)" fill="#fdbd52"/>
        </g>
        <path id="Path_1106" data-name="Path 1106" d="M596.3,174.873a5.356,5.356,0,1,1-5.356-5.356A5.356,5.356,0,0,1,596.3,174.873Z" transform="translate(-466.89 -139.398)" fill="#f59883"/>
        <path id="Path_1107" data-name="Path 1107" d="M586.911,165.166s-1.793,9.87-1.793,11.573,3.766,1.362,3.766,1.362l2.261-4.577.123-5.073-2.384-8.63Z" transform="translate(-467.086 -143.404)" fill="#40336f"/>
        <path id="Path_1108" data-name="Path 1108" d="M597.942,158.919c-5.336-1.362-13.285-4.655-18.338-9.2a7.81,7.81,0,0,0-1.689-1.188c.013.061,2.583,12.38,14.146,14.854,11.591,2.48,10.505,16.936,12.955,24.715h0a19.244,19.244,0,0,0,3.827-8.517C610.093,171.864,603.28,160.282,597.942,158.919Z" transform="translate(-470.062 -148.068)" fill="#fff" opacity="0.42" style="mix-blend-mode: overlay;isolation: isolate"/>
        <path id="Path_1109" data-name="Path 1109" d="M575.618,169.17a7.937,7.937,0,0,1,4.864.555" transform="translate(-471.011 -139.606)" fill="none" stroke="#40336f" stroke-linecap="round" stroke-miterlimit="10" stroke-width="0.623"/>
        <path id="Path_1110" data-name="Path 1110" d="M574.676,179.837a15.626,15.626,0,0,0,6.224-3.981l-6.293.643C574.607,177.618,574.63,178.733,574.676,179.837Z" transform="translate(-471.429 -136.779)" fill="#fefefe"/>
        <path id="Path_1111" data-name="Path 1111" d="M561.488,366.751v14.865H501.633s-1.46-11.589,14.012-14.865Z" transform="translate(-501.596 -57.904)" fill="#211b3a"/>
      </g>
      <g id="Group_599" data-name="Group 599" transform="translate(132.226 76.122)">
        <rect id="Rectangle_133" data-name="Rectangle 133" width="85.407" height="122.13" rx="8.951" transform="translate(40.017)" fill="#8873dd"/>
        <rect id="Rectangle_134" data-name="Rectangle 134" width="85.407" height="122.13" rx="8.951" transform="translate(51.669)" fill="#a393e3"/>
        <rect id="Rectangle_135" data-name="Rectangle 135" width="127.568" height="22.254" rx="7.795" transform="translate(0 146.275)" fill="#a393e3"/>
        <rect id="Rectangle_137" data-name="Rectangle 137" width="11.006" height="24.146" transform="translate(86.135 122.13)" fill="#8873dd"/>
        <g id="Group_598" data-name="Group 598" transform="translate(32.673 238.619)">
          <ellipse id="Ellipse_34" data-name="Ellipse 34" cx="32.234" cy="6.253" rx="32.234" ry="6.253" transform="translate(0 11.195)" fill="#a393e3"/>
          <path id="Path_1113" data-name="Path 1113" d="M560.369,388.371s10.582-17.449,32.555-17.449,31.914,17.449,31.914,17.449Z" transform="translate(-560.369 -370.922)" fill="#a393e3"/>
        </g>
        <rect id="Rectangle_138" data-name="Rectangle 138" width="10.99" height="87.99" transform="translate(59.733 168.529)" fill="#a393e3"/>
        <rect id="Rectangle_139" data-name="Rectangle 139" width="10.99" height="14.676" transform="translate(59.733 168.529)" fill="#a393e3"/>
      </g>
    </g>
    <g id="Group_610" data-name="Group 610" transform="translate(199.239 204.591)">
      <g id="Group_606" data-name="Group 606" transform="translate(219.09 162.823)">
        <rect id="Rectangle_140" data-name="Rectangle 140" width="13.126" height="104.502" transform="translate(36.482)" fill="#c2d8de"/>
        <rect id="Rectangle_141" data-name="Rectangle 141" width="18.621" height="104.502" transform="translate(17.86)" fill="#86a6ad"/>
        <rect id="Rectangle_143" data-name="Rectangle 143" width="13.228" height="17.858" transform="translate(56.219 104.502)" fill="#c2d8de"/>
        <rect id="Rectangle_144" data-name="Rectangle 144" width="31.747" height="18.792" transform="translate(17.86)" fill="#86a6ad" style="mix-blend-mode: multiply;isolation: isolate"/>
      </g>
      <path id="Path_1133" data-name="Path 1133" d="M502.853,200.969l34.714,47.939v70.164H184.518v-118.1Z" transform="translate(-184.518 -182.79)" fill="#6e54d7"/>
      <path id="Path_1134" data-name="Path 1134" d="M537.568,248.908H184.518V200.969H502.853Z" transform="translate(-184.518 -182.79)" fill="#a393e3"/>
      <path id="Path_1135" data-name="Path 1135" d="M231.059,200.969l34.714,47.939v70.164H184.518v-118.1Z" transform="translate(-184.518 -182.79)" fill="#a393e3" opacity="0.38"/>
      <rect id="Rectangle_145" data-name="Rectangle 145" width="295.073" height="26.54" transform="translate(17.357 136.283)" fill="#40336f"/>
      <path id="Path_1136" data-name="Path 1136" d="M220.059,200.969l34.714,47.939v70.164H184.518v-118.1Z" transform="translate(-184.518 -182.79)" fill="#677f91"/>
      <g id="Group_607" data-name="Group 607" transform="translate(306.852 18.179)" opacity="0.38">
        <path id="Path_1137" data-name="Path 1137" d="M413.137,200.969H401.653l34.714,47.939v70.164h11.484V248.908Z" transform="translate(-401.653 -200.969)" fill="#a393e3"/>
      </g>
      <path id="Path_1138" data-name="Path 1138" d="M271.962,188.105H381.736a13.172,13.172,0,0,1,12.608,9.358l10.012,33.091a5.717,5.717,0,0,1-5.473,7.373H289.109a13.169,13.169,0,0,1-12.607-9.358L266.49,195.478A5.717,5.717,0,0,1,271.962,188.105Z" transform="translate(-150.751 -188.105)" fill="#c2d8de"/>
      <path id="Path_1139" data-name="Path 1139" d="M403.645,231.168H293.87a13.173,13.173,0,0,1-12.608-9.358l-10.012-33.091a5.256,5.256,0,0,1-.095-.545,5.692,5.692,0,0,0-4.665,7.276L276.5,228.541a13.169,13.169,0,0,0,12.607,9.358H398.883a5.691,5.691,0,0,0,5.568-6.828A5.6,5.6,0,0,1,403.645,231.168Z" transform="translate(-150.751 -188.077)" fill="#86a6ad"/>
      <path id="Path_1140" data-name="Path 1140" d="M280.519,196.45l6.4,22.036a4.089,4.089,0,0,0,3.927,2.949h36.008a3.541,3.541,0,0,0,3.4-4.528l-6.4-22.036a4.089,4.089,0,0,0-3.927-2.949H283.919A3.541,3.541,0,0,0,280.519,196.45Z" transform="translate(-144.911 -186.528)" fill="#ef4c44"/>
      <path id="Path_1141" data-name="Path 1141" d="M330.246,216.907l-6.4-22.036a4.089,4.089,0,0,0-3.927-2.949H283.913a3.531,3.531,0,0,0-3.524,3.491,3.508,3.508,0,0,1,1.064-.182h36.008a4.089,4.089,0,0,1,3.927,2.949l6.4,22.037a3.5,3.5,0,0,1,.126,1.036A3.528,3.528,0,0,0,330.246,216.907Z" transform="translate(-144.906 -186.528)" fill="#86a6ad"/>
      <path id="Path_1142" data-name="Path 1142" d="M324.82,218.6l-7.114-22.053a3.541,3.541,0,0,1,3.37-4.627h38.779a4.088,4.088,0,0,1,3.9,2.872l6.875,22.047a3.54,3.54,0,0,1-3.38,4.594H328.712A4.09,4.09,0,0,1,324.82,218.6Z" transform="translate(-129.559 -186.528)" fill="#fdbd52"/>
      <path id="Path_1143" data-name="Path 1143" d="M370.622,216.841l-6.875-22.047a4.088,4.088,0,0,0-3.9-2.872H321.064a3.527,3.527,0,0,0-3.5,3.163,3.493,3.493,0,0,1,1.012-.161h38.779a4.087,4.087,0,0,1,3.9,2.872l6.875,22.047a3.508,3.508,0,0,1,.123,1.432A3.532,3.532,0,0,0,370.622,216.841Z" transform="translate(-129.547 -186.528)" fill="#86a6ad"/>
      <rect id="Rectangle_146" data-name="Rectangle 146" width="214.348" height="8.816" transform="translate(104.143 72.455)" fill="#40336f"/>
      <path id="Path_1144" data-name="Path 1144" d="M258.212,245.615l11.346,23.143H486.887L472.56,245.615Z" transform="translate(-154.069 -164.343)" fill="#a393e3"/>
      <path id="Path_1145" data-name="Path 1145" d="M239.373,252.2a3.857,3.857,0,0,1-3.857,3.858H193.639a3.857,3.857,0,0,1-3.857-3.858h0a3.857,3.857,0,0,1,3.857-3.857h41.878a3.857,3.857,0,0,1,3.857,3.857Z" transform="translate(-182.343 -163.215)" fill="#40336f"/>
      <path id="Path_1146" data-name="Path 1146" d="M239.373,263.119a3.857,3.857,0,0,1-3.857,3.857H193.639a3.857,3.857,0,0,1-3.857-3.857h0a3.857,3.857,0,0,1,3.857-3.857h41.878a3.857,3.857,0,0,1,3.857,3.857Z" transform="translate(-182.343 -158.704)" fill="#40336f"/>
      <path id="Path_1147" data-name="Path 1147" d="M239.373,274.037a3.857,3.857,0,0,1-3.857,3.857H193.639a3.857,3.857,0,0,1-3.857-3.857h0a3.857,3.857,0,0,1,3.857-3.858h41.878a3.857,3.857,0,0,1,3.857,3.858Z" transform="translate(-182.343 -154.194)" fill="#40336f"/>
      <path id="Path_1148" data-name="Path 1148" d="M436.685,245.614H266.6a772.832,772.832,0,0,0,1.834,81.552H439.184C437.612,304.319,436.685,277.4,436.685,245.614Z" transform="translate(-150.75 -164.343)" fill="#86a6ad" style="mix-blend-mode: multiply;isolation: isolate"/>
      <path id="Path_1149" data-name="Path 1149" d="M278.2,245.614s-9.919,234.461,74.389,234.461c41.326,0,35.437-28.929,71.029-25.622s23.195,25.622,67.827,25.622H636.092s-7-11.158-41.973-20.444c-13.3-3.531-103.278-5.437-103.278-5.437s-42.554,7.422-42.554-208.58Z" transform="translate(-145.958 -164.343)" fill="#a393e3"/>
      <path id="Path_1152" data-name="Path 1152" d="M278.2,245.614s-9.919,234.461,74.389,234.461c19.543,0,28.526-6.469,36.332-12.94h0s-24.5,4.51-35.075,1.782c-63.138-15.132-58.5-194.1-57.314-223.3Z" transform="translate(-145.958 -164.343)" fill="#6e54d7"/>
      <path id="Path_1153" data-name="Path 1153" d="M386.878,245.614c.824,29.923,7.3,203.271,46.846,208.58,3.681.072,7.022.016,10.089-.134-8.379-1.718-40.577-20.542-40.577-208.446Z" transform="translate(-100.906 -164.343)" fill="#6e54d7"/>
      <path id="Path_1154" data-name="Path 1154" d="M553.128,398.647c-5.114-1.358-21.572-2.476-39.89-3.337l.072,0c20.05.83,49.511,10.836,49.511,10.836h-133.1c-4.943-5.855-13.558-10.092-21.309-12.941H377.052l.01.01c1.742-.006,3.582.064,5.568.249,35.592,3.305,23.195,25.622,67.827,25.622H595.1S588.1,407.933,553.128,398.647Z" transform="translate(-104.966 -103.359)" fill="#6e54d7"/>
      <g id="Group_608" data-name="Group 608" transform="translate(180.115 111.607)">
        <circle id="Ellipse_38" data-name="Ellipse 38" cx="34.631" cy="34.631" r="34.631" transform="translate(0 32.66) rotate(-28.135)" fill="#fdbd52"/>
        <circle id="Ellipse_39" data-name="Ellipse 39" cx="34.631" cy="34.631" r="34.631" transform="translate(4.045 100.12) rotate(-53.188)" fill="#ef4c44"/>
      </g>
      <g id="Group_609" data-name="Group 609" transform="translate(31.852 162.823)">
        <rect id="Rectangle_147" data-name="Rectangle 147" width="13.126" height="104.502" transform="translate(36.482)" fill="#c2d8de"/>
        <rect id="Rectangle_148" data-name="Rectangle 148" width="18.621" height="104.502" transform="translate(17.861)" fill="#86a6ad"/>
        <rect id="Rectangle_149" data-name="Rectangle 149" width="56.219" height="17.858" transform="translate(0 104.502)" fill="#86a6ad"/>
        <rect id="Rectangle_150" data-name="Rectangle 150" width="13.228" height="17.858" transform="translate(56.219 104.502)" fill="#c2d8de"/>
        <rect id="Rectangle_151" data-name="Rectangle 151" width="31.747" height="18.792" transform="translate(17.861)" fill="#86a6ad" style="mix-blend-mode: multiply;isolation: isolate"/>
      </g>
      <path id="Path_1156" data-name="Path 1156" d="M217.451,200.969l34.714,47.939v68.678" transform="translate(-170.911 -182.79)" fill="none" stroke="#415369" stroke-miterlimit="10" stroke-width="1.17"/>
      <path id="Path_1157" data-name="Path 1157" d="M401.653,200.969l34.714,47.939v68.678" transform="translate(-94.802 -182.79)" fill="none" stroke="#415369" stroke-miterlimit="10" stroke-width="1.17"/>
    </g>
  </g>
</svg>
